<svg id="Layer_1" data-name="Layer 1" xmlns="http://www.w3.org/2000/svg" viewBox="0 0 50 50"><defs><style>.cls-1{stroke:#000;stroke-miterlimit:10;stroke-width:0.5px;}</style></defs><title>logo_black</title><g id="Layer_3" data-name="Layer 3"><path class="cls-1" d="M46.36,16.33v-.06H42.55L36.13,36.11l-3-9.62c.64-3.65,1.14-7.31,1.59-11q.3-2.47.57-4.95c0-.42-.62-.42-.66,0-.53,4.86-1.13,9.72-1.93,14.55l-2.77-8.79v-.05H26.09L24.48,40.66v.07h3l1-20.89L31.68,30.5a55.13,55.13,0,0,1-1.91,7.16,17.85,17.85,0,0,1-1.16,2.7c-.18.32-.37.63-.58.93a1,1,0,0,1-.11.14l-.14.18c-.09.1-.18.21-.28.31l-.27.24h0l-.06,0-.15.1-.25.13h0l-.06,0-.14,0-.12,0h-.07a2,2,0,0,1-.35,0h-.09l-.12,0-.13,0-.1,0a2.87,2.87,0,0,1-.48-.28,7.42,7.42,0,0,1-1.91-2.39,32.3,32.3,0,0,1-1.88-3.94c-1.36-3.34-2.47-6.78-3.66-10.18A62.9,62.9,0,0,0,14,16.49c-.75-1.41-2.2-4-4.2-3.45-1.22.34-2,1.66-2.49,2.72a28.39,28.39,0,0,0-1.93,5.82A134.44,134.44,0,0,0,2.66,38.52c-.16,1.45-.3,2.91-.44,4.37,0,.42.61.42.65,0C3.44,37,4.1,31.07,5.22,25.24a53.76,53.76,0,0,1,1.73-7,10.17,10.17,0,0,1,2.15-4.1,1.74,1.74,0,0,1,1.13-.54s.19,0,.19,0l.26.06.17.06.25.14a3.64,3.64,0,0,1,.93.84A10.84,10.84,0,0,1,13,16.06a47.71,47.71,0,0,1,3.64,8.62c1.21,3.43,2.33,6.9,3.66,10.3a42.89,42.89,0,0,0,1.88,4.29,12,12,0,0,0,2,2.92,3,3,0,0,0,2.15,1,2.39,2.39,0,0,0,1.2-.43,7.79,7.79,0,0,0,2.38-3.52,42.4,42.4,0,0,0,2.22-7.49l2.67,8.75H37l6.94-20.72.9,20.86v.06h3Zm-18,2.74-1,21.53h-2.7l1.59-24.2H29.8l2.83,9c-.14.79-.27,1.59-.42,2.39s-.31,1.63-.47,2.44ZM44,19.1,36.89,40.4H34.83l-2.7-8.88.15-.7q.42-2,.78-4.05l3.07,9.77L42.65,16.4h3.59l1.41,24.2H45Z"/></g></svg>